<svg width="454" height="354" viewBox="0 0 454 354" fill="none" xmlns="http://www.w3.org/2000/svg">
<path d="M339.753 85.1597C379.091 109.358 416.212 142.825 433.388 186.589C450.564 229.837 447.793 283.899 418.428 314.791C388.51 346.197 331.442 354.95 286.009 353.921C240.023 352.891 205.671 342.593 167.442 333.326C128.658 324.058 87.1036 315.305 53.3062 289.047C19.5089 262.789 -5.97765 218.51 1.22507 179.895C8.98184 140.765 49.4279 107.814 90.982 83.6151C132.536 59.9312 174.644 45 216.752 45C258.307 45.5149 300.415 60.9609 339.753 85.1597Z" fill="#C7FECD" fill-opacity="0.26"/>
<path d="M33.18 272H37.09L31.973 265.37L36.835 260.1H33.129L28.522 265.047V260.1H25.19V272H28.522V269.025L29.78 267.682L33.18 272ZM45.9292 260.1V264.571H41.3392V260.1H37.9732V272H41.3392V267.359H45.9292V272H49.2952V260.1H45.9292ZM57.6705 257.839L59.1325 259.131H61.2745L59.0645 256.547H56.2765L54.0665 259.131H56.2085L57.6705 257.839ZM57.6705 259.862C53.8625 259.862 51.0575 262.48 51.0575 266.05C51.0575 269.62 53.8625 272.238 57.6705 272.238C61.4785 272.238 64.2835 269.62 64.2835 266.05C64.2835 262.48 61.4785 259.862 57.6705 259.862ZM57.6705 269.45C55.8685 269.45 54.4575 268.107 54.4575 266.05C54.4575 263.993 55.8685 262.65 57.6705 262.65C59.4725 262.65 60.8835 263.993 60.8835 266.05C60.8835 268.107 59.4725 269.45 57.6705 269.45ZM74.0704 260.1V266.441L68.8174 260.1H66.0464V272H69.3444V265.659L74.5974 272H77.3684V260.1H74.0704ZM87.7157 269.059C87.1207 269.331 86.5257 269.45 85.8967 269.45C83.8907 269.45 82.5307 268.056 82.5307 266.05C82.5307 263.993 83.8907 262.65 85.9307 262.65C87.0697 262.65 88.0047 263.075 88.8207 263.976L90.9627 262.038C89.7897 260.627 87.9877 259.862 85.7607 259.862C81.9017 259.862 79.1307 262.429 79.1307 266.05C79.1307 269.671 81.9017 272.238 85.6927 272.238C87.4267 272.238 89.3137 271.711 90.6907 270.725V265.795H87.7157V269.059ZM100.305 272H103.671V262.769H107.309V260.1H96.65V262.769H100.305V272ZM109.6 259.131H111.912L109.634 256.547H106.404L109.6 259.131ZM108.563 272H111.929V260.1H108.563V272ZM128.162 272L128.128 260.1H125.357L121.277 266.968L117.095 260.1H114.324V272H117.435V265.863L120.478 270.827H121.974L125.034 265.693L125.068 272H128.162ZM138.024 272H141.39V262.769H145.028V260.1H134.369V262.769H138.024V272ZM154.238 260.1V264.571H149.648V260.1H146.282V272H149.648V267.359H154.238V272H157.604V260.1H154.238ZM172.677 255.306H169.515L167.713 257.431H169.94L172.677 255.306ZM165.469 258.128L166.914 259.131H169.073L166.846 257.057H164.092L161.865 259.131H164.024L165.469 258.128ZM163.803 260.1L158.55 272H161.984L162.919 269.688H167.951L168.886 272H172.388L167.118 260.1H163.803ZM163.905 267.206L165.435 263.398L166.965 267.206H163.905ZM183.526 260.1H180.262L177.44 264.826L174.618 260.1H171.065L175.604 267.682V272H178.97V267.733L183.526 260.1ZM191.863 272H195.229V262.769H198.867V260.1H188.208V262.769H191.863V272ZM207.482 272H211.086L208.519 268.26C209.998 267.546 210.848 266.254 210.848 264.503C210.848 261.783 208.808 260.1 205.561 260.1H200.121V272H203.487V268.838H205.323L207.482 272ZM207.448 264.503C207.448 265.591 206.751 266.237 205.357 266.237H203.487V262.752H205.357C206.751 262.752 207.448 263.398 207.448 264.503ZM221.613 272H225.115L219.845 260.1H216.53L211.277 272H214.711L215.646 269.688H220.678L221.613 272ZM216.632 267.206L218.162 263.398L219.692 267.206H216.632ZM234.093 260.1V266.441L228.84 260.1H226.069V272H229.367V265.659L234.62 272H237.391V260.1H234.093ZM247.738 269.059C247.143 269.331 246.548 269.45 245.919 269.45C243.913 269.45 242.553 268.056 242.553 266.05C242.553 263.993 243.913 262.65 245.953 262.65C247.092 262.65 248.027 263.075 248.843 263.976L250.985 262.038C249.812 260.627 248.01 259.862 245.783 259.862C241.924 259.862 239.153 262.429 239.153 266.05C239.153 269.671 241.924 272.238 245.715 272.238C247.449 272.238 249.336 271.711 250.713 270.725V265.795H247.738V269.059Z" fill="#263238"/>
<path d="M98.3083 117.742C98.3083 114.487 100.182 112.095 104.402 112.095C108.622 112.095 110.57 114.463 110.57 117.742V129.179C110.57 132.435 108.696 134.826 104.402 134.826C100.108 134.826 98.3083 132.459 98.3083 129.179V117.742ZM100.138 129.274C100.138 131.642 101.333 133.489 104.402 133.489C107.471 133.489 108.74 131.701 108.74 129.274V117.648C108.74 115.28 107.501 113.433 104.402 113.433C101.304 113.433 100.138 115.221 100.138 117.648V129.274Z" fill="#263238"/>
<path d="M113.477 117.742C113.477 114.487 115.351 112.095 119.556 112.095C123.762 112.095 125.724 114.463 125.724 117.742V129.179C125.724 132.435 123.865 134.826 119.556 134.826C115.248 134.826 113.477 132.459 113.477 129.179V117.742ZM115.307 129.274C115.307 131.642 116.502 133.489 119.556 133.489C122.611 133.489 123.894 131.701 123.894 129.274V117.648C123.894 115.28 122.67 113.433 119.556 113.433C116.443 113.433 115.307 115.221 115.307 117.648V129.274Z" fill="#263238"/>
<path d="M134.519 112.285C138.827 112.285 140.495 114.463 140.495 117.719V120.146C140.495 123.698 138.458 125.438 134.046 125.438H130.579V134.637H128.749V112.285H134.519ZM134.046 124.124C137.263 124.124 138.665 122.94 138.665 120.264V117.648C138.665 115.221 137.632 113.658 134.519 113.658H130.579V124.124H134.046Z" fill="#263238"/>
<path d="M154.985 117.683V118.157H153.229V117.589C153.229 115.221 152.122 113.433 149.097 113.433C146.072 113.433 144.951 115.197 144.951 117.553C144.951 122.987 155.014 123.082 155.014 129.238C155.014 132.459 153.273 134.826 149.009 134.826C144.744 134.826 143.003 132.459 143.003 129.238V128.054H144.759V129.238C144.759 131.606 145.91 133.358 148.979 133.358C152.048 133.358 153.184 131.63 153.184 129.238C153.184 123.875 143.121 123.78 143.121 117.553C143.121 114.202 144.951 112.036 149.023 112C153.096 111.965 154.985 114.463 154.985 117.683Z" fill="#263238"/>
<path d="M159.514 131.831V134.637H157.729V131.831H159.514Z" fill="#263238"/>
<path d="M164.531 131.831V134.637H162.746V131.831H164.531Z" fill="#263238"/>
<path d="M169.504 131.831V134.637H167.719V131.831H169.504Z" fill="#263238"/>
<path d="M33 211.071L64.3556 151.579H83.169V211.071H91.3141V223.645H83.169V239.616H66.2296V223.645H33V211.071ZM66.2296 211.071V177.992L48.8475 211.071H66.2296Z" fill="#263238"/>
<path d="M97.7476 172.7C97.7476 158.623 106.999 150.573 123.924 150.573C140.849 150.573 150.1 158.623 150.1 172.7V218.483C150.1 232.571 140.849 240.622 123.924 240.622C106.999 240.622 97.7476 232.571 97.7476 218.483V172.7ZM114.982 219.371C114.982 225.657 118.435 228.049 123.924 228.049C129.413 228.049 132.866 225.681 132.866 219.371V171.824C132.866 165.537 129.413 163.146 123.924 163.146C118.435 163.146 114.982 165.514 114.982 171.824V219.371Z" fill="#263238"/>
<path d="M157.154 211.071L188.509 151.579H207.323V211.071H215.468V223.645H207.323V239.616H190.383V223.645H157.154V211.071ZM190.383 211.071V177.992L172.986 211.071H190.383Z" fill="#263238"/>
<path d="M432.17 27.7C432.17 27.7 432.17 22.76 425.26 15.86C418.35 8.96 413.91 5 413.91 5C413.91 5 410.46 16.35 416.91 23.26C421.621 28.1073 426.725 32.5559 432.17 36.56V27.7Z" fill="#92E3A9"/>
<path d="M422.14 58.56C422.14 58.56 422.14 53.62 415.24 46.72C408.34 39.82 403.89 35.86 403.89 35.86C403.89 35.86 400.44 47.21 406.89 54.12C411.608 58.9772 416.722 63.4327 422.18 67.44L422.14 58.56Z" fill="#92E3A9"/>
<path d="M431.73 36.1C431.73 36.1 432.26 31.19 439.85 25.05C447.44 18.91 452.28 15.46 452.28 15.46C452.28 15.46 454.51 27.11 447.41 33.3C442.207 37.6319 436.651 41.5221 430.8 44.93L431.73 36.1Z" fill="#92E3A9"/>
<path d="M419.62 72.49C419.62 72.49 420.62 67.66 428.86 62.35C437.1 57.04 442.23 54.12 442.23 54.12C442.23 54.12 443.23 65.94 435.51 71.35C429.878 75.1131 423.941 78.3979 417.76 81.17L419.62 72.49Z" fill="#92E3A9"/>
<path d="M421.9 112.16C421.9 112.16 421.9 107.22 428.81 100.32C435.72 93.42 440.15 89.46 440.15 89.46C440.15 89.46 443.61 100.81 437.15 107.72C432.433 112.577 427.318 117.033 421.86 121.04L421.9 112.16Z" fill="#92E3A9"/>
<path d="M421.79 121.84C421.79 121.84 422.49 116.96 416.63 109.14C410.77 101.32 406.94 96.78 406.94 96.78C406.94 96.78 401.94 107.52 407.28 115.27C411.256 120.749 415.681 125.887 420.51 130.63L421.79 121.84Z" fill="#92E3A9"/>
<path d="M414.98 150.56C414.98 150.56 414.98 145.63 421.88 138.72C428.78 131.81 433.23 127.86 433.23 127.86C433.23 127.86 436.68 139.21 430.23 146.12C425.516 150.98 420.401 155.436 414.94 159.44L414.98 150.56Z" fill="#92E3A9"/>
<path d="M419.59 176.56C419.59 176.56 418.34 171.78 423.27 163.35C428.2 154.92 431.51 149.98 431.51 149.98C431.51 149.98 437.72 160.08 433.27 168.39C429.934 174.283 426.114 179.889 421.85 185.15L419.59 176.56Z" fill="#92E3A9"/>
<path d="M432.79 26.43C432.444 31.5677 431.813 36.6822 430.9 41.75C428.17 55.86 421.35 64.96 418.62 77.7C415.89 90.44 423.72 106.85 421.62 123.22C419.52 139.59 413.16 148.68 414.98 159.61C416.8 170.54 426.35 200.1 426.35 200.1" stroke="#263238" stroke-width="1.08162" stroke-linecap="round" stroke-linejoin="round"/>
<path d="M431.67 39.38L439.11 33.67" stroke="#263238" stroke-width="1.08162" stroke-linecap="round" stroke-linejoin="round"/>
<path d="M432.01 32.8L428.9 27.26" stroke="#263238" stroke-width="1.08162" stroke-linecap="round" stroke-linejoin="round"/>
<path d="M419.03 77.11C419.03 77.11 425.26 72.44 431.67 67.77" stroke="#263238" stroke-width="1.08162" stroke-linecap="round" stroke-linejoin="round"/>
<path d="M422.14 67.39C422.14 67.39 416.95 57.21 411.07 50.46" stroke="#263238" stroke-width="1.08162" stroke-linecap="round" stroke-linejoin="round"/>
<path d="M422.15 119.18C425.716 112.62 430.216 106.614 435.51 101.35" stroke="#263238" stroke-width="1.08162" stroke-linecap="round" stroke-linejoin="round"/>
<path d="M420.93 126.1C419.041 121.649 416.783 117.364 414.18 113.29C410.55 107.92 410.03 107.23 410.03 107.23" stroke="#263238" stroke-width="1.08162" stroke-linecap="round" stroke-linejoin="round"/>
<path d="M414.98 159.61C416.556 155.688 418.431 151.893 420.59 148.26C422.745 144.89 425.177 141.706 427.86 138.74" stroke="#263238" stroke-width="1.08162" stroke-linecap="round" stroke-linejoin="round"/>
<path d="M421.84 185.15C421.479 181.406 422.121 177.634 423.7 174.22C426.3 169.22 429.24 162.62 430.45 160.03" stroke="#263238" stroke-width="1.08162" stroke-linecap="round" stroke-linejoin="round"/>
<path d="M386.94 93.56C386.94 93.56 386.4 90.47 389.99 85.39C393.58 80.31 395.92 77.39 395.92 77.39C395.92 77.39 399.32 84.13 396.05 89.16C393.62 92.7168 390.894 96.0621 387.9 99.16L386.94 93.56Z" fill="#92E3A9"/>
<path d="M396.57 111.84C396.57 111.84 396.03 108.74 399.62 103.66C403.21 98.58 405.55 95.66 405.55 95.66C405.55 95.66 408.95 102.4 405.68 107.43C403.25 110.987 400.524 114.332 397.53 117.43L396.57 111.84Z" fill="#92E3A9"/>
<path d="M388.12 98.83C388.12 98.83 387.26 95.83 381.83 92.78C376.4 89.73 373 88.11 373 88.11C373 88.11 372.86 95.66 378 98.77C381.734 100.922 385.641 102.758 389.68 104.26L388.12 98.83Z" fill="#92E3A9"/>
<path d="M399.67 120.33C399.67 120.33 398.5 117.42 392.78 114.98C387.06 112.54 383.5 111.27 383.5 111.27C383.5 111.27 384.16 118.79 389.58 121.34C393.523 123.086 397.603 124.501 401.78 125.57L399.67 120.33Z" fill="#92E3A9"/>
<path d="M402.51 145.45C402.51 145.45 401.97 142.36 396.89 138.78C391.81 135.2 388.6 133.2 388.6 133.2C388.6 133.2 387.66 140.69 392.43 144.33C395.907 146.859 399.586 149.097 403.43 151.02L402.51 145.45Z" fill="#92E3A9"/>
<path d="M403.67 151.56C403.67 151.56 402.67 148.56 405.52 143.04C408.37 137.52 410.26 134.24 410.26 134.24C410.26 134.24 414.58 140.43 412.05 145.87C410.153 149.738 407.935 153.441 405.42 156.94L403.67 151.56Z" fill="#92E3A9"/>
<path d="M412.34 176.47C412.34 176.47 412.7 173.35 417.57 169.47C422.44 165.59 425.57 163.47 425.57 163.47C425.57 163.47 426.93 170.9 422.37 174.8C419.038 177.53 415.482 179.975 411.74 182.11L412.34 176.47Z" fill="#92E3A9"/>
<path d="M411.06 168.77C411.06 168.77 410.52 165.68 405.44 162.09C400.36 158.5 397.15 156.52 397.15 156.52C397.15 156.52 396.21 164.01 400.98 167.65C404.457 170.179 408.136 172.417 411.98 174.34L411.06 168.77Z" fill="#92E3A9"/>
<path d="M410.99 185.56C410.99 185.56 411.25 182.43 407.25 177.68C403.25 172.93 400.64 170.18 400.64 170.18C400.64 170.18 397.83 177.18 401.53 181.92C404.269 185.253 407.28 188.354 410.53 191.19L410.99 185.56Z" fill="#92E3A9"/>
<path d="M386.41 92.88C387.188 96.0632 388.139 99.2012 389.26 102.28C392.5 110.83 397.77 115.79 400.87 123.49C403.97 131.19 400.87 142.33 403.92 152.36C406.97 162.39 412 167.36 412.04 174.45C412.08 181.54 409.3 201.09 409.3 201.09" stroke="#263238" stroke-width="1.08162" stroke-linecap="round" stroke-linejoin="round"/>
<path d="M388.52 100.87L383.24 98.1" stroke="#263238" stroke-width="1.08162" stroke-linecap="round" stroke-linejoin="round"/>
<path d="M387.59 96.79L388.94 92.98" stroke="#263238" stroke-width="1.08162" stroke-linecap="round" stroke-linejoin="round"/>
<path d="M400.51 123.17C400.51 123.17 396.1 120.91 391.57 118.68" stroke="#263238" stroke-width="1.08162" stroke-linecap="round" stroke-linejoin="round"/>
<path d="M397.51 117.4C398.811 113.288 400.53 109.321 402.64 105.56" stroke="#263238" stroke-width="1.08162" stroke-linecap="round" stroke-linejoin="round"/>
<path d="M403.16 149.88C400.214 146.157 396.744 142.88 392.86 140.15" stroke="#263238" stroke-width="1.08162" stroke-linecap="round" stroke-linejoin="round"/>
<path d="M404.67 154.09C405.37 151.096 406.32 148.165 407.51 145.33C409.21 141.57 409.46 141.08 409.46 141.08" stroke="#263238" stroke-width="1.08162" stroke-linecap="round" stroke-linejoin="round"/>
<path d="M411.8 179.8C413.518 177.668 415.422 175.693 417.49 173.9C418.804 172.93 420.038 171.857 421.18 170.69" stroke="#263238" stroke-width="1.08162" stroke-linecap="round" stroke-linejoin="round"/>
<path d="M412.04 174.45C410.625 172.165 409.037 169.992 407.29 167.95C405.572 166.073 403.703 164.34 401.7 162.77" stroke="#263238" stroke-width="1.08162" stroke-linecap="round" stroke-linejoin="round"/>
<path d="M410.51 191.22C410.333 188.832 409.518 186.536 408.15 184.57C405.98 181.7 403.42 177.9 402.38 176.4" stroke="#263238" stroke-width="1.08162" stroke-linecap="round" stroke-linejoin="round"/>
<path d="M432.99 234.76H402.58C401.82 234.757 401.092 234.454 400.554 233.916C400.016 233.379 399.713 232.65 399.71 231.89L395.19 197.67H440.37L435.86 231.89C435.858 232.65 435.555 233.379 435.017 233.916C434.479 234.454 433.751 234.757 432.99 234.76Z" fill="#263238"/>
<path d="M439.98 203.56H395.19C394.254 203.56 393.356 203.188 392.694 202.526C392.032 201.864 391.66 200.966 391.66 200.03C391.659 199.566 391.749 199.105 391.926 198.676C392.103 198.247 392.363 197.856 392.691 197.527C393.019 197.199 393.408 196.938 393.837 196.76C394.266 196.582 394.726 196.49 395.19 196.49H439.98C440.445 196.49 440.906 196.582 441.335 196.759C441.765 196.937 442.155 197.198 442.484 197.527C442.812 197.856 443.073 198.246 443.251 198.675C443.429 199.105 443.52 199.565 443.52 200.03C443.518 200.967 443.144 201.865 442.48 202.527C441.816 203.188 440.918 203.56 439.98 203.56Z" fill="#263238"/>
<line x1="15" y1="246.5" x2="454" y2="246.5" stroke="black"/>
<path d="M306.494 326.402C334.548 326.402 357.291 321.684 357.291 315.865C357.291 310.045 334.548 305.328 306.494 305.328C278.44 305.328 255.698 310.045 255.698 315.865C255.698 321.684 278.44 326.402 306.494 326.402Z" fill="#263238" stroke="#263238" stroke-linecap="round" stroke-linejoin="round"/>
<path d="M267.327 77.6903C267.327 77.6903 260.454 81.5569 260.532 83.2535C260.61 84.9502 257.969 115.892 257.669 119.758C257.368 123.625 253.368 131.608 253.058 135.234C252.747 138.859 253.737 142.493 254.892 144.163C256.047 145.833 260.289 151.173 260.289 151.173L271.695 134.966C271.975 131.427 272.033 127.876 271.87 124.33C271.695 116.606 267.327 77.6903 267.327 77.6903Z" fill="white" stroke="#263238" stroke-linecap="round" stroke-linejoin="round"/>
<path d="M311.212 1.01941C311.212 1.01941 299.078 0.30503 292.167 8.04713C285.256 15.7892 286.741 27.6301 286.692 31.2645C286.644 34.8989 274.908 45.5521 276.209 49.892C277.509 54.2318 280.965 54.723 279.859 58.3484C278.752 61.9739 271.53 64.1528 272.578 68.7516C273.627 73.3504 277.432 79.8691 277.432 79.8691L347.322 80.3067C347.322 80.3067 349.816 73.5379 347.157 68.4569C344.497 63.3759 340.721 61.6971 341.333 59.2771C341.944 56.8572 345.322 51.0528 344.021 46.704C342.721 42.3552 338.197 41.1497 337.722 33.4076C337.246 25.6655 336.003 12.8692 329.325 6.61837C322.647 0.36754 311.212 1.01941 311.212 1.01941Z" fill="#263238" stroke="#263238" stroke-linecap="round" stroke-linejoin="round"/>
<path d="M289.721 299.371C287.574 303.176 284.969 306.747 281.955 310.016C277.49 314.614 273.161 317.034 273.306 319.454C273.452 321.874 283.198 322.348 288.352 320.651C293.506 318.954 297.253 315.57 298.292 315.293C299.331 315.016 302.233 315.293 302.301 311.9C302.369 308.507 301.806 298.845 301.806 298.845L289.721 299.371Z" fill="white" stroke="#263238" stroke-linecap="round" stroke-linejoin="round"/>
<path d="M288.333 320.651C293.497 318.954 297.234 315.57 298.273 315.293C299.311 315.016 302.214 315.293 302.282 311.9C302.282 310.114 302.175 306.542 302.039 303.622C301.275 304.94 300.145 306.047 298.763 306.832C297.382 307.616 295.799 308.049 294.176 308.087C294.176 308.087 294.079 306.39 291.264 303.497C289.449 301.604 287.614 303.095 286.547 304.39L285.683 305.586L285.615 305.703C284.494 307.223 283.269 308.676 281.946 310.051C277.48 314.65 273.151 317.07 273.297 319.49C273.442 321.91 283.178 322.348 288.333 320.651Z" fill="white" stroke="#263238" stroke-linecap="round" stroke-linejoin="round"/>
<path d="M325.685 299.353C328.293 303.172 331.318 306.735 334.712 309.989C339.711 314.579 344.322 316.99 344.419 319.41C344.516 321.83 334.868 322.312 329.509 320.624C324.151 318.936 320.016 315.552 318.958 315.311C317.9 315.07 315.007 315.311 314.551 311.936C314.095 308.56 313.522 298.88 313.522 298.88L325.685 299.353Z" fill="white" stroke="#263238" stroke-linecap="round" stroke-linejoin="round"/>
<path d="M329.548 320.624C324.2 318.936 320.055 315.552 318.997 315.311C317.939 315.07 315.046 315.311 314.59 311.936C314.347 310.15 314.075 306.578 313.872 303.649C314.769 304.958 316.003 306.045 317.463 306.814C318.923 307.583 320.567 308.011 322.249 308.06C322.249 308.06 322.152 306.363 324.607 303.461C326.209 301.577 328.218 303.059 329.461 304.354C329.781 304.747 330.111 305.14 330.432 305.551L330.519 305.667C331.824 307.185 333.217 308.637 334.693 310.016C339.692 314.606 344.303 317.017 344.4 319.437C344.497 321.856 334.907 322.312 329.548 320.624Z" fill="white" stroke="#263238" stroke-linecap="round" stroke-linejoin="round"/>
<path d="M268.608 171.738C268.608 171.738 270.229 222.022 272.384 231.934C274.539 241.846 284.159 298.657 284.159 298.657C287.099 299.801 290.265 300.373 293.458 300.336H303.971L304.941 258.027L305.3 196.617L310.571 300.568C310.571 300.568 325.054 301.041 326.617 300.8C328.18 300.559 329.48 300.318 329.48 300.318L338.789 234.55L344.118 190.795L344.41 173.39C344.41 173.39 299.913 171.971 286.983 171.006C274.054 170.042 268.734 169.801 268.734 169.801L268.608 171.738Z" fill="#6EAAE2" stroke="#263238" stroke-linecap="round" stroke-linejoin="round"/>
<path d="M328.694 260.518C328.578 261.357 328.461 262.134 328.325 262.849" stroke="#263238" stroke-linecap="round" stroke-linejoin="round"/>
<path d="M329.888 199.983C329.888 199.983 330.791 235.809 329.209 255.258" stroke="#263238" stroke-linecap="round" stroke-linejoin="round"/>
<path d="M282.179 197.108C282.179 197.108 283.295 220.807 284.401 226.121" stroke="#263238" stroke-linecap="round" stroke-linejoin="round"/>
<path d="M323.656 182.008V200.099C326.176 200.723 328.753 201.133 331.354 201.323C335.343 201.564 342.789 201.323 342.789 201.323L343.322 194.474L323.656 182.008Z" fill="#263238" stroke="#263238" stroke-linecap="round" stroke-linejoin="round"/>
<path d="M269.433 195.938C269.433 195.938 279.538 198.876 283.79 199.117C288.042 199.358 292.021 199.849 292.021 199.849L291.497 194.965L268.899 193.009L269.433 195.938Z" fill="#263238" stroke="#263238" stroke-linecap="round" stroke-linejoin="round"/>
<path d="M300.107 58.5717L292.177 66.796L270.181 81.5569L274.869 171.024C274.869 171.024 292.4 175.364 307.446 176.569C322.491 177.775 341.837 174.605 341.837 174.605L338.993 80.8425C338.993 80.8425 330.432 69.2338 326.044 66.0995C321.657 62.9651 319.647 60.0629 313.833 59.5807C308.018 59.0985 300.107 58.5717 300.107 58.5717Z" fill="#6EAAE2" stroke="#263238" stroke-linecap="round" stroke-linejoin="round"/>
<path d="M290.905 62.974L267.327 77.7349L271.025 132.126L269.773 137.591L259.862 148.092L264.085 166.541L262.202 192.572C262.202 192.572 271.569 195.474 277.917 196.188C282.644 196.654 287.394 196.896 292.148 196.911L292.963 161.371C292.963 161.371 296.098 102.372 296.467 99.7557C296.836 97.1393 300.107 58.6788 300.107 58.6788L290.905 62.974Z" fill="white" stroke="#263238" stroke-linecap="round" stroke-linejoin="round"/>
<path d="M291.284 65.1975L279.868 91.5314L292.186 96.2374L280.557 98.184L290.857 135.305" stroke="#263238" stroke-linecap="round" stroke-linejoin="round"/>
<path d="M298.127 51.5618C298.127 51.5618 302.223 76.6991 305.446 82.5034C308.669 88.3077 309.581 90.2366 309.581 90.2366C309.581 90.2366 316.59 70.6447 317.997 67.7425C319.405 64.8404 320.909 54.4461 320.909 54.4461C320.909 54.4461 306.941 58.5627 298.127 51.5618Z" fill="white" stroke="#263238" stroke-linecap="round" stroke-linejoin="round"/>
<path d="M298.127 51.5618C298.127 51.5618 298.496 53.8478 299.098 57.1965C301.146 58.6342 306.572 62.1882 310.581 62.3757C313.639 62.5186 317.521 60.697 320.103 59.2414C320.569 56.6071 320.89 54.4461 320.89 54.4461C320.89 54.4461 306.941 58.5627 298.127 51.5618Z" fill="#263238" stroke="#263238" stroke-linecap="round" stroke-linejoin="round"/>
<path d="M292.565 34.1845C292.565 34.1845 289.769 30.5233 287.886 34.1845C286.003 37.8457 290.798 43.2661 292.138 44.0072C295.943 46.0879 294.933 42.2213 294.933 42.2213L292.565 34.1845Z" fill="white" stroke="#263238" stroke-linecap="round" stroke-linejoin="round"/>
<path d="M327.287 35.7651C327.287 35.7651 329.645 31.9789 331.956 35.5508C334.266 39.1227 330.102 44.7395 328.859 45.5342C325.306 47.7935 325.869 43.918 325.869 43.918L327.287 35.7651Z" fill="white" stroke="#263238" stroke-linecap="round" stroke-linejoin="round"/>
<path d="M291.905 30.9519C291.905 30.9519 302.039 28.7731 307.145 25.9959C310.272 24.2583 312.999 21.9739 315.172 19.2718C315.172 19.2718 319.56 26.8978 323.423 29.9875C327.287 33.0772 328.092 33.2558 328.092 33.2558C328.092 33.2558 326.238 46.6058 324.142 51.2493C322.045 55.8927 315.201 60.4112 308.814 59.1074C305.184 58.3752 298.894 55.9642 297.069 51.9011C295.244 47.8381 291.905 30.9519 291.905 30.9519Z" fill="white" stroke="#263238" stroke-linecap="round" stroke-linejoin="round"/>
<path d="M317.764 41.2122C314.619 41.2837 304.087 41.3015 298.651 38.2833C296.472 37.1164 294.432 35.7426 292.565 34.1845C292.759 35.0775 292.992 36.1937 293.244 37.3546L294.429 38.1493L297.399 48.4721L296.011 48.749C296.304 49.8042 296.657 50.8445 297.069 51.8654C298.894 55.9285 305.184 58.3395 308.814 59.0717C315.192 60.3666 322.016 55.8749 324.132 51.2404C323.632 50.34 323.485 49.3089 323.714 48.3203C324.326 45.4003 325.083 40.2835 325.083 40.2835L327.248 38.4976C327.364 37.8457 327.461 37.2206 327.558 36.6491C324.938 38.319 320.026 41.1587 317.764 41.2122Z" fill="#6EAAE2" stroke="#263238" stroke-linecap="round" stroke-linejoin="round"/>
<path d="M306.203 36.8992C306.203 36.8992 302.815 33.1129 298.37 33.4612" stroke="#263238" stroke-linecap="round" stroke-linejoin="round"/>
<path d="M314.93 37.6493C316.011 36.6038 317.353 35.8178 318.841 35.3602C320.328 34.9025 321.915 34.787 323.462 35.0239" stroke="#263238" stroke-linecap="round" stroke-linejoin="round"/>
<path d="M296.419 31.5681C296.419 31.5681 301.272 29.7822 305.572 30.6216" stroke="#263238" stroke-linecap="round" stroke-linejoin="round"/>
<path d="M315.328 31.5949C316.606 30.9939 318.055 30.7692 319.477 30.9513C320.899 31.1334 322.226 31.7135 323.278 32.6129" stroke="#263238" stroke-linecap="round" stroke-linejoin="round"/>
<path d="M302.942 35.6579C302.964 35.7952 302.956 35.935 302.919 36.0695C302.882 36.204 302.817 36.3305 302.726 36.4417C302.636 36.5528 302.523 36.6465 302.393 36.7174C302.264 36.7882 302.12 36.8348 301.971 36.8545C301.667 36.8231 301.388 36.6865 301.19 36.4726C300.991 36.2587 300.889 35.9834 300.903 35.7026C300.88 35.5652 300.887 35.4249 300.923 35.2899C300.959 35.1549 301.025 35.028 301.115 34.9166C301.206 34.8051 301.319 34.7114 301.449 34.6409C301.58 34.5704 301.724 34.5245 301.874 34.506C302.177 34.5394 302.455 34.6765 302.652 34.89C302.85 35.1034 302.954 35.3776 302.942 35.6579Z" fill="#263238"/>
<path d="M320.521 36.8188C320.547 36.9565 320.542 37.0976 320.507 37.2336C320.472 37.3696 320.407 37.4975 320.316 37.6095C320.225 37.7215 320.11 37.8153 319.979 37.8851C319.847 37.9549 319.701 37.9992 319.55 38.0154C319.247 37.9861 318.968 37.8514 318.77 37.6389C318.571 37.4264 318.468 37.1522 318.482 36.8724C318.456 36.7347 318.461 36.5935 318.496 36.4575C318.532 36.3216 318.597 36.1937 318.687 36.0816C318.778 35.9696 318.893 35.8758 319.025 35.806C319.156 35.7363 319.302 35.6919 319.453 35.6758C319.756 35.7051 320.035 35.8398 320.234 36.0522C320.432 36.2647 320.535 36.5389 320.521 36.8188Z" fill="#263238"/>
<path d="M346.662 72.5646C346.662 72.5646 352.321 74.9756 354.427 78.8154C356.534 82.6552 373.375 124.259 373.297 127.402C373.22 130.545 367.648 134.171 362.426 134.662C357.203 135.153 349.593 126.447 348.457 125C347.322 123.553 347.118 106.623 347.118 106.623L346.662 72.5646Z" fill="white" stroke="#263238" stroke-linecap="round" stroke-linejoin="round"/>
<path d="M319.987 61.456L322.744 144.628L323.714 197.09C329 198.286 334.415 198.93 339.857 199.01C344.396 199.097 348.91 198.357 353.136 196.831C353.136 196.831 351.486 164.193 351.195 158.871C350.904 153.549 348.982 143.395 348.982 143.395L346.691 72.5646C346.691 72.5646 325.365 63.3848 319.987 61.456Z" fill="white" stroke="#263238" stroke-linecap="round" stroke-linejoin="round"/>
<path d="M326.044 66.0459L335.819 95.3801L326.908 97.6036L335.576 101.47L324.763 133.073" fill="white"/>
<path d="M326.044 66.0459L335.819 95.3801L326.908 97.6036L335.576 101.47L324.763 133.073" stroke="#263238" stroke-linecap="round" stroke-linejoin="round"/>
<path d="M332.858 92.8798L320.734 146.315C320.734 146.315 329.024 148.726 335.081 148.994C341.138 149.262 353.757 149.227 353.757 149.227L366.376 99.4164C366.376 99.4164 341.536 97.2286 332.858 92.8798Z" fill="#263238" stroke="#263238" stroke-linecap="round" stroke-linejoin="round"/>
<path d="M337.081 142.681L337.479 125.982L347.098 127.849C347.098 127.849 340.74 140.734 337.081 142.681Z" fill="white" stroke="#263238" stroke-linecap="round" stroke-linejoin="round"/>
<path d="M344.448 119.946C344.448 119.946 341.886 116.57 341.061 115.838C340.236 115.106 336.159 112.945 335.372 112.945C334.586 112.945 330.364 112.704 329.548 112.704C328.733 112.704 327.811 114.4 328.646 115.124C329.48 115.847 332.383 116.088 332.383 116.088L334.373 118.767L325.394 118.044C325.394 118.044 323.899 119.499 324.239 120.723C324.493 121.552 324.817 122.361 325.209 123.143C325.175 124.918 325.276 126.693 325.51 128.456C325.86 129.911 327.452 130.394 329.636 131.599C331.82 132.805 339.129 132.081 339.129 132.081H342.507L344.448 119.946Z" fill="white" stroke="#263238" stroke-linecap="round" stroke-linejoin="round"/>
<path d="M366.338 121.625L343.041 118.74C343.041 118.74 341.226 132.528 339.391 137.118C337.557 141.708 337.081 142.681 337.081 142.681C337.081 142.681 361.494 142.181 367.25 141.699C373.006 141.217 376.239 138.064 375.986 133.716C375.734 129.367 372.851 125.009 372.851 125.009" fill="white"/>
<path d="M366.338 121.625L343.041 118.74C343.041 118.74 341.226 132.528 339.391 137.118C337.557 141.708 337.081 142.681 337.081 142.681C337.081 142.681 361.494 142.181 367.25 141.699C373.006 141.217 376.239 138.064 375.986 133.716C375.734 129.367 372.851 125.009 372.851 125.009" stroke="#263238" stroke-linecap="round" stroke-linejoin="round"/>
<path d="M269.191 136.68C269.191 136.68 274.627 139.815 275.985 140.788C277.344 141.761 277.461 148.039 278.325 149.244C279.189 150.45 278.17 151.182 276.597 151.182C275.025 151.182 272.646 146.592 272.646 146.592L272.549 144.896L261.445 148.289L258.532 143.699C258.532 143.699 261.833 136.68 269.191 136.68Z" fill="white" stroke="#263238" stroke-linecap="round" stroke-linejoin="round"/>
</svg>
